<?xml version="1.0" encoding="iso-8859-1"?>
<!-- Generator: Adobe Illustrator 19.0.0, SVG Export Plug-In . SVG Version: 6.00 Build 0)  -->
<svg version="1.1" id="Capa_1" xmlns="http://www.w3.org/2000/svg" xmlns:xlink="http://www.w3.org/1999/xlink" x="0px" y="0px"
	 viewBox="0 0 512.003 512.003" style="enable-background:new 0 0 512.003 512.003;" xml:space="preserve">
<g>
	<g>
		<path style="fill:#71C285;" d="M318.767,210.981c22.097-24.886,57.732-32.662,88.188-19.244c0,0-2.207,40.695-31.779,52.612
			c-12.623,5.208-30.367,5.12-55.084-5.826"/>
		<path style="fill:#4C8056;" d="M308.977,256.006c-2.743-0.002-5.331-1.277-7.002-3.453c-1.671-2.175-2.238-5.004-1.533-7.655
			l35.31-132.414c0.809-3.051,3.185-5.438,6.233-6.26c3.048-0.822,6.302,0.047,8.535,2.278c2.233,2.231,3.104,5.485,2.284,8.533
			l-35.31,132.414C316.466,253.311,312.973,256,308.977,256.006z"/>
		<path style="fill:#F29C1F;" d="M378.265,140.36v0.088c10.286,5.284,22.808,3.322,30.985-4.855
			c8.177-8.177,10.139-20.698,4.855-30.985V54.291c5.284-10.286,3.322-22.808-4.855-30.985s-20.698-10.139-30.985-4.855h-50.317
			c-10.286-5.284-22.808-3.322-30.985,4.855s-10.139,20.698-4.855,30.985v50.317c-5.284,10.286-3.322,22.808,4.855,30.985
			c8.177,8.177,20.698,10.139,30.985,4.855L378.265,140.36z"/>
		<path style="fill:#4C8056;" d="M194.21,264.833c-3.681-0.003-6.974-2.287-8.267-5.733l-52.966-141.241
			c-1.129-2.959-0.587-6.295,1.42-8.744c2.007-2.449,5.172-3.636,8.295-3.11c3.123,0.526,5.724,2.684,6.819,5.655l52.966,141.241
			c1.016,2.712,0.638,5.749-1.011,8.129S197.105,264.832,194.21,264.833z"/>
		<path style="fill:#F29C1F;" d="M166.403,166.843v0.088c10.286,5.284,22.808,3.322,30.985-4.855
			c8.177-8.177,10.139-20.698,4.855-30.985V80.774c5.284-10.286,3.322-22.808-4.855-30.985s-20.698-10.139-30.985-4.855h-50.317
			c-10.286-5.284-22.808-3.322-30.985,4.855s-10.139,20.698-4.855,30.985v50.317c-5.284,10.286-3.322,22.808,4.855,30.985
			c8.177,8.177,20.698,10.139,30.985,4.855L166.403,166.843z"/>
		<g>
			<path style="fill:#802F34;" d="M461.332,327.593l-81.743,122.615V326.622l43.785-35.046
				C428.726,309.476,443.177,323.188,461.332,327.593z"/>
			<path style="fill:#802F34;" d="M132.417,459.036c-2.222,0.003-4.362-0.835-5.991-2.345L20.934,359.144
				C-1.811,336.623-6.565,301.622,9.348,273.85c15.913-27.772,48.514-41.368,79.445-33.133c30.93,8.235,52.454,36.243,52.451,68.25
				c0,4.875-3.952,8.828-8.828,8.828s-8.828-3.952-8.828-8.828c-0.002-23.971-16.104-44.952-39.258-51.156
				c-23.154-6.204-47.589,3.917-59.576,24.676c-11.987,20.759-8.537,46.981,8.411,63.933l105.241,97.306
				c2.668,2.466,3.553,6.316,2.229,9.7C139.313,456.809,136.05,459.036,132.417,459.036z"/>
		</g>
		<g>
			<path style="fill:#CC4B4C;" d="M379.589,256.001v238.345c-0.029,9.739-7.916,17.627-17.655,17.655h-220.69
				c-9.739-0.029-17.627-7.916-17.655-17.655V256.001c0.012-0.856,0.071-1.711,0.177-2.56c0.131-0.993,0.368-1.97,0.706-2.913
				c0.138-0.484,0.315-0.957,0.53-1.412c0.359-0.849,0.772-1.675,1.236-2.472c0.421-0.654,0.893-1.274,1.412-1.854
				c0.088-0.177,0.265-0.265,0.353-0.441c3.346-3.811,8.17-5.998,13.241-6.003h220.69c5.05-0.013,9.854,2.179,13.153,6.003
				c0.188,0.099,0.342,0.253,0.441,0.441c0.519,0.579,0.992,1.199,1.412,1.854c0.464,0.797,0.877,1.622,1.236,2.472
				c0.215,0.456,0.392,0.928,0.53,1.412c0.339,0.943,0.575,1.92,0.706,2.913C379.518,254.291,379.577,255.146,379.589,256.001z"/>
			<path style="fill:#CC4B4C;" d="M125.001,249.116c-0.177,0.441-0.353,0.883-0.53,1.412"/>
			<path style="fill:#CC4B4C;" d="M379.589,256.001c-0.012-0.856-0.071-1.711-0.177-2.56"/>
			<path style="fill:#CC4B4C;" d="M376.941,246.644c-0.441-0.618-0.883-1.236-1.412-1.854"/>
			<path style="fill:#CC4B4C;" d="M512.003,313.694c-20.807,20.807-54.541,20.807-75.348,0c-20.807-20.807-20.807-54.541,0-75.348
				L512.003,313.694z"/>
		</g>
		<g>
			<path style="fill:#F0C419;" d="M119.175,67.709c-2.866-4.384-4.4-9.505-4.414-14.742c-0.02-2.734,0.428-5.451,1.324-8.033
				c3.461-10.982,13.645-18.45,25.159-18.45c11.514,0,21.698,7.468,25.159,18.45c0.896,2.583,1.344,5.299,1.324,8.033
				c-0.014,5.238-1.547,10.358-4.414,14.742"/>
			<path style="fill:#F0C419;" d="M163.313,144.156c2.866,4.384,4.4,9.505,4.414,14.742c0.013,2.704-0.435,5.391-1.324,7.945v0.088
				c-3.461,10.982-13.645,18.45-25.159,18.45c-11.514,0-21.698-7.468-25.159-18.45c-0.896-2.583-1.344-5.299-1.324-8.033
				c0.014-5.238,1.547-10.358,4.414-14.742"/>
			<path style="fill:#F0C419;" d="M103.021,83.864c-4.384-2.866-9.505-4.4-14.742-4.414c-2.734-0.02-5.451,0.428-8.033,1.324
				c-10.982,3.461-18.45,13.645-18.45,25.159s7.468,21.698,18.45,25.159c2.583,0.896,5.299,1.344,8.033,1.324
				c5.238-0.014,10.358-1.547,14.742-4.414"/>
			<path style="fill:#F0C419;" d="M179.468,83.864c4.384-2.866,9.505-4.4,14.742-4.414c2.734-0.02,5.451,0.428,8.033,1.324
				c10.982,3.461,18.45,13.645,18.45,25.159s-7.468,21.698-18.45,25.159c-2.583,0.896-5.299,1.344-8.033,1.324
				c-5.238-0.014-10.358-1.547-14.742-4.414"/>
			<path style="fill:#F0C419;" d="M331.037,41.226c-2.866-4.384-4.4-9.505-4.414-14.742c-0.02-2.734,0.428-5.451,1.324-8.033
				c3.461-10.982,13.645-18.45,25.159-18.45s21.698,7.468,25.159,18.45c0.896,2.583,1.344,5.299,1.324,8.033
				c-0.014,5.238-1.547,10.358-4.414,14.742"/>
			<path style="fill:#F0C419;" d="M375.175,117.673c2.866,4.384,4.4,9.505,4.414,14.742c0.013,2.704-0.435,5.391-1.324,7.945v0.088
				c-3.461,10.982-13.645,18.45-25.159,18.45s-21.698-7.468-25.159-18.45c-0.896-2.583-1.344-5.299-1.324-8.033
				c0.014-5.238,1.547-10.358,4.414-14.742"/>
			<path style="fill:#F0C419;" d="M314.883,57.381c-4.384-2.866-9.505-4.4-14.742-4.414c-2.734-0.02-5.451,0.428-8.033,1.324
				c-10.982,3.461-18.45,13.645-18.45,25.159s7.468,21.698,18.45,25.159c2.583,0.896,5.299,1.344,8.033,1.324
				c5.238-0.014,10.358-1.547,14.742-4.414"/>
			<path style="fill:#F0C419;" d="M391.33,57.381c4.384-2.866,9.505-4.4,14.742-4.414c2.734-0.02,5.451,0.428,8.033,1.324
				c10.982,3.461,18.45,13.645,18.45,25.159s-7.468,21.698-18.45,25.159c-2.583,0.896-5.299,1.344-8.033,1.324
				c-5.238-0.014-10.358-1.547-14.742-4.414"/>
		</g>
		<path style="fill:#71C285;" d="M291.313,238.346c-88.276-17.655-44.138-88.276-44.138-88.276
			c70.621,17.655,61.793,88.276,61.793,88.276h8.828"/>
	</g>
	<g>
		<path style="fill:#B0D3F0;" d="M251.589,287.285c0,0-26.483,35.33-26.483,50.472c1.25,13.693,12.733,24.176,26.483,24.176
			c13.75,0,25.233-10.482,26.483-24.176C278.072,322.615,251.589,287.285,251.589,287.285z"/>
		<path style="fill:#B0D3F0;" d="M203.037,384.389c0,0-26.483,35.33-26.483,50.472c0.672,13.973,12.507,24.776,26.483,24.176
			c13.976,0.601,25.811-10.203,26.483-24.176C229.52,419.719,203.037,384.389,203.037,384.389z"/>
		<path style="fill:#B0D3F0;" d="M300.141,384.389c0,0-26.483,35.33-26.483,50.472c1.25,13.693,12.733,24.176,26.483,24.176
			s25.233-10.482,26.483-24.176C326.624,419.719,300.141,384.389,300.141,384.389z"/>
	</g>
	<g>
		<circle style="fill:#E64C3C;" cx="141.244" cy="105.932" r="44.138"/>
		<circle style="fill:#E64C3C;" cx="353.106" cy="79.45" r="44.138"/>
	</g>
</g>
<g>
</g>
<g>
</g>
<g>
</g>
<g>
</g>
<g>
</g>
<g>
</g>
<g>
</g>
<g>
</g>
<g>
</g>
<g>
</g>
<g>
</g>
<g>
</g>
<g>
</g>
<g>
</g>
<g>
</g>
</svg>
