<?xml version="1.0" encoding="iso-8859-1"?>
<!-- Generator: Adobe Illustrator 19.0.0, SVG Export Plug-In . SVG Version: 6.00 Build 0)  -->
<svg version="1.1" id="Capa_1" xmlns="http://www.w3.org/2000/svg" xmlns:xlink="http://www.w3.org/1999/xlink" x="0px" y="0px"
	 viewBox="0 0 512 512" style="enable-background:new 0 0 512 512;" xml:space="preserve">
<g>
	<path style="fill:#4C8056;" d="M335.537,329.446c-54.113,61.528-204.094,79.36-220.778-20.48
		c-12.359-74.24-59.498-96.486-86.51-103.018l-15.89-41.401C4.171,143.311-0.018,120.745,0,97.986V17.655
		C0.029,7.916,7.916,0.028,17.655,0h220.69c9.739,0.028,17.627,7.916,17.655,17.655v194.207
		C255.095,263.898,286.902,310.92,335.537,329.446z"/>
	<path style="fill:#71C285;" d="M512,466.803H88.276c-20.938-0.021-38.992-14.722-43.255-35.222c-0.56-2.94-0.856-5.923-0.883-8.916
		V281.6c0.019-22.759-4.171-45.325-12.359-66.56l-3.531-9.092c27.012,6.532,74.152,28.778,86.51,103.018
		c16.684,99.84,166.665,82.008,220.778,20.48c11.319,3.969,23.227,5.999,35.222,6.003c0,0,138.417-8.651,141.153,93.926v0.441
		L512,466.803z"/>
	<path style="fill:#FAC176;" d="M97.104,466.803V512h-35.31c-9.739-0.029-17.627-7.916-17.655-17.655v-62.764h0.883
		c4.263,20.5,22.317,35.201,43.255,35.222H97.104z"/>
	<rect x="97.104" y="466.803" style="fill:#F9EAB0;" width="52.966" height="45.197"/>
	<rect x="150.069" y="466.803" style="fill:#FAC176;" width="52.966" height="45.197"/>
	<rect x="203.035" y="466.803" style="fill:#F9EAB0;" width="52.966" height="45.197"/>
	<rect x="256" y="466.803" style="fill:#FAC176;" width="52.966" height="45.197"/>
	<g>
		<rect x="308.966" y="466.803" style="fill:#F9EAB0;" width="52.966" height="45.197"/>
		<rect x="414.897" y="466.803" style="fill:#F9EAB0;" width="52.966" height="45.197"/>
	</g>
	<g>
		<rect x="361.931" y="466.803" style="fill:#FAC176;" width="52.966" height="45.197"/>
		<path style="fill:#FAC176;" d="M512,466.803v27.542c-0.029,9.739-7.916,17.627-17.655,17.655h-26.483v-45.197H512z"/>
	</g>
	<path style="fill:#F9EAB0;" d="M256,17.655V35.31h-44.138V0h26.483C248.084,0.028,255.972,7.916,256,17.655z"/>
	<path style="fill:#FAC176;" d="M35.31,0v35.31H0V17.655C0.029,7.916,7.916,0.028,17.655,0H35.31z"/>
	<rect x="35.31" y="0" style="fill:#F9EAB0;" width="44.138" height="35.31"/>
	<rect x="79.448" y="0" style="fill:#FAC176;" width="44.138" height="35.31"/>
	<rect x="123.586" y="0" style="fill:#F9EAB0;" width="44.138" height="35.31"/>
	<rect x="167.724" y="0" style="fill:#FAC176;" width="44.138" height="35.31"/>
</g>
<g>
</g>
<g>
</g>
<g>
</g>
<g>
</g>
<g>
</g>
<g>
</g>
<g>
</g>
<g>
</g>
<g>
</g>
<g>
</g>
<g>
</g>
<g>
</g>
<g>
</g>
<g>
</g>
<g>
</g>
</svg>
