<?xml version="1.0" encoding="iso-8859-1"?>
<!-- Generator: Adobe Illustrator 19.0.0, SVG Export Plug-In . SVG Version: 6.00 Build 0)  -->
<svg version="1.1" id="Capa_1" xmlns="http://www.w3.org/2000/svg" xmlns:xlink="http://www.w3.org/1999/xlink" x="0px" y="0px"
	 viewBox="0 0 512.004 512.004" style="enable-background:new 0 0 512.004 512.004;" xml:space="preserve">
<g>
	<g>
		<path style="fill:#E57E25;" d="M317.795,445.795c-4.875,0-8.828-3.952-8.828-8.828V251.588c0-4.875,3.952-8.828,8.828-8.828
			c4.875,0,8.828,3.952,8.828,8.828v185.379C326.623,441.843,322.671,445.795,317.795,445.795z"/>
		<path style="fill:#E57E25;" d="M291.321,304.554c-3.045,0.004-5.876-1.561-7.491-4.142l-19.862-31.72
			c-2.559-4.131-1.299-9.554,2.82-12.133c4.119-2.579,9.547-1.344,12.146,2.762l19.862,31.72c1.703,2.72,1.797,6.15,0.243,8.958
			C297.485,302.807,294.53,304.551,291.321,304.554z"/>
		<path style="fill:#E57E25;" d="M364.149,433.347c-3.147,0.004-6.058-1.67-7.638-4.392l-28.69-49.345
			c-2.45-4.214-1.02-9.615,3.194-12.065c4.214-2.45,9.615-1.02,12.065,3.194l28.69,49.345c1.585,2.729,1.592,6.096,0.02,8.832
			C370.218,431.653,367.305,433.342,364.149,433.347L364.149,433.347z"/>
		<path style="fill:#E57E25;" d="M282.476,331.037c-1.462,0-2.9-0.364-4.185-1.06L233.33,305.7c-2.805-1.482-4.6-4.356-4.7-7.527
			c-0.1-3.171,1.51-6.152,4.216-7.808c2.707-1.656,6.093-1.732,8.872-0.199l44.961,24.276c3.558,1.921,5.356,6.015,4.363,9.934
			C290.049,328.296,286.52,331.04,282.476,331.037z"/>
		<path style="fill:#E57E25;" d="M264.83,353.106h-39.724c-4.875,0-8.828-3.952-8.828-8.828s3.952-8.828,8.828-8.828h39.724
			c4.875,0,8.828,3.952,8.828,8.828S269.705,353.106,264.83,353.106z"/>
		<path style="fill:#E57E25;" d="M237.532,399.45c-4.044,0.004-7.572-2.741-8.565-6.66c-0.993-3.92,0.805-8.013,4.363-9.934
			l44.961-24.276c4.283-2.263,9.59-0.651,11.891,3.611c2.301,4.262,0.738,9.583-3.503,11.923l-44.961,24.276
			C240.432,399.086,238.994,399.451,237.532,399.45z"/>
		<path style="fill:#E57E25;" d="M271.442,433.377c-3.209-0.002-6.164-1.746-7.718-4.555s-1.46-6.238,0.244-8.958l19.862-31.72
			c1.674-2.673,4.647-4.251,7.799-4.138c3.152,0.113,6.005,1.899,7.483,4.685s1.358,6.15-0.316,8.823l-19.862,31.72
			C277.318,431.816,274.486,433.382,271.442,433.377z"/>
	</g>
	<circle style="fill:#F29C1F;" cx="322.209" cy="344.278" r="75.034"/>
	<path style="fill:#D1D4D1;" d="M490.816,345.072c2.384-13.374,3.566-26.934,3.531-40.519
		c0-131.634-106.711-238.345-238.345-238.345S17.657,172.92,17.657,304.554c-0.035,13.585,1.147,27.145,3.531,40.519
		c-14.52,5.883-23.123,20.943-20.816,36.439c2.307,15.496,14.923,27.397,30.527,28.797c0.971,0.088,2.03,0.177,3.09,0.177h113.258
		c20.893,0.047,37.915-16.761,38.133-37.653c0.218-20.892-16.45-38.051-37.339-38.441c0.176-1.406,0.264-2.821,0.265-4.237
		c0.018-16.433-9.289-31.453-24.011-38.753c6.73-67.694,63.68-119.262,131.708-119.262s124.977,51.568,131.708,119.262
		c-2.753,1.375-5.357,3.031-7.768,4.943c-10.271,8.216-16.248,20.657-16.243,33.81c0,1.417,0.089,2.832,0.265,4.237
		c-19.67,0.36-35.82,15.661-37.241,35.283c-1.421,19.622,12.355,37.09,31.768,40.281c2.07,0.355,4.167,0.532,6.268,0.53h116.348
		v-0.177c15.604-1.4,28.22-13.301,30.527-28.797C513.939,366.016,505.336,350.956,490.816,345.072z"/>
	<path style="fill:#E64C3C;" d="M494.347,304.554c0.035,13.585-1.147,27.145-3.531,40.519c-3.588-1.495-7.415-2.333-11.299-2.472
		c1.07-3.003,1.607-6.17,1.589-9.357c0.017-13.166-9.189-24.545-22.069-27.277v-1.412c0-112.133-90.902-203.034-203.034-203.034
		S52.968,192.421,52.968,304.554v1.412c-12.88,2.732-22.086,14.111-22.069,27.277c-0.018,3.188,0.519,6.354,1.589,9.357
		c-3.884,0.139-7.712,0.976-11.299,2.472c-2.384-13.374-3.566-26.934-3.531-40.519c0-131.634,106.711-238.345,238.345-238.345
		S494.347,172.92,494.347,304.554z"/>
	<path style="fill:#F0C419;" d="M459.037,304.554v1.412c-1.892-0.355-3.813-0.533-5.738-0.53c-3.317-0.003-6.607,0.595-9.71,1.766
		c-4.88-7.754-12.076-13.776-20.568-17.214c-7.514-86.649-80.044-153.162-167.018-153.162S96.498,203.339,88.984,289.988
		c-8.493,3.437-15.688,9.46-20.568,17.214c-3.104-1.17-6.393-1.768-9.71-1.766c-1.925-0.003-3.846,0.174-5.738,0.53v-1.412
		c0-112.133,90.902-203.034,203.034-203.034S459.037,192.421,459.037,304.554z"/>
	<path style="fill:#4482C3;" d="M423.02,289.988c-11.437-4.565-24.275-4.052-35.31,1.412
		c-6.73-67.694-63.68-119.262-131.708-119.262s-124.977,51.568-131.708,119.262c-11.035-5.464-23.874-5.978-35.31-1.412
		c7.514-86.649,80.044-153.162,167.018-153.162S415.506,203.339,423.02,289.988z"/>
</g>
<g>
</g>
<g>
</g>
<g>
</g>
<g>
</g>
<g>
</g>
<g>
</g>
<g>
</g>
<g>
</g>
<g>
</g>
<g>
</g>
<g>
</g>
<g>
</g>
<g>
</g>
<g>
</g>
<g>
</g>
</svg>
