<?xml version="1.0" encoding="iso-8859-1"?>
<!-- Generator: Adobe Illustrator 19.0.0, SVG Export Plug-In . SVG Version: 6.00 Build 0)  -->
<svg version="1.1" id="Capa_1" xmlns="http://www.w3.org/2000/svg" xmlns:xlink="http://www.w3.org/1999/xlink" x="0px" y="0px"
	 viewBox="0 0 512.052 512.052" style="enable-background:new 0 0 512.052 512.052;" xml:space="preserve">
<g transform="translate(0 -1)">
	<path style="fill:#CBB292;" d="M378.95,265.859V371.79c0,68.255-55.331,123.586-123.586,123.586S131.777,440.045,131.777,371.79
		V265.859c-0.049-29.285,10.378-57.621,29.397-79.89c9.102-10.83,20.038-19.973,32.308-27.012
		c10.712-6.333,22.363-10.921,34.516-13.594c8.975-2.063,18.156-3.1,27.366-3.09l28.601,3.354l34.251,13.859l24.541,18.979
		c2.579,2.58,5.025,5.291,7.327,8.121C368.762,208.775,378.987,236.856,378.95,265.859z"/>
	<path style="fill:#D75E72;" d="M193.482,158.957c-12.27,7.039-23.207,16.183-32.308,27.012
		c-11.454-12.572-21.136-26.65-28.778-41.843c3.442-6.621,6.709-13.683,9.709-21.01c3.425-8.38,6.344-16.958,8.739-25.688V97.34
		c3.667-12.399,6.005-25.153,6.974-38.047c9.033,12.601,16.476,26.269,22.157,40.695
		C187.944,118.686,192.518,138.655,193.482,158.957z"/>
	<path style="fill:#7F5B53;" d="M227.998,145.363c-12.153,2.673-23.804,7.262-34.516,13.594
		c-0.964-20.302-5.537-40.27-13.506-58.968c-5.682-14.426-13.124-28.094-22.157-40.695c2.207-28.778-4.414-50.67-19.332-56.673
		c-1.927-0.758-3.945-1.262-6.002-1.501c24.717-2.383,59.145,33.633,80.241,85.628C220.494,105.489,225.633,125.214,227.998,145.363
		z"/>
	<path style="fill:#CBB292;" d="M157.819,59.294c-0.969,12.894-3.307,25.648-6.974,38.047v0.088
		c-2.396,8.73-5.314,17.308-8.739,25.688c-3,7.327-6.268,14.389-9.709,21.01c-22.953,44.491-55.084,71.857-76.624,63.117
		c-24.893-10.063-26.483-64-3.619-120.497c21.01-52.083,55.614-88.099,80.332-85.628c2.057,0.238,4.075,0.743,6.002,1.501
		C153.405,8.623,160.026,30.516,157.819,59.294z"/>
	<path style="fill:#7F5B53;" d="M379.568,1.12c-2.058,0.238-4.076,0.743-6.003,1.501c-14.919,6.003-21.539,27.895-19.333,56.673
		c-9.033,12.601-16.475,26.27-22.157,40.695c-7.968,18.698-12.541,38.666-13.506,58.969l-0.352,0.53l-34.251-13.859l0.088-0.265
		c2.365-20.149,7.504-39.874,15.272-58.615C320.423,34.753,354.85-1.264,379.568,1.12z"/>
	<path style="fill:#CBB292;" d="M379.656,144.127c0.001,0.024-0.009,0.046-0.025,0.063c-0.017,0.017-0.039,0.026-0.063,0.025"/>
	<path style="fill:#D75E72;" d="M379.568,144.215c-7.582,15.18-17.238,29.233-28.69,41.755l-0.795,0.618
		c-2.302-2.83-4.748-5.541-7.327-8.121l-24.541-18.979l0.352-0.53c0.965-20.302,5.538-40.27,13.506-58.969
		c5.682-14.425,13.125-28.094,22.158-40.695c1.014,12.888,3.35,25.637,6.974,38.047v0.088c2.397,8.73,5.316,17.308,8.739,25.688
		C372.948,130.532,376.213,137.594,379.568,144.215z"/>
	<path style="fill:#CBB292;" d="M456.279,207.244c-21.539,8.739-53.672-18.626-76.711-63.029
		c-3.356-6.621-6.621-13.683-9.623-21.098c-3.424-8.38-6.342-16.959-8.739-25.688V97.34c-3.623-12.41-5.96-25.159-6.974-38.047
		c-2.207-28.778,4.414-50.67,19.333-56.673c1.928-0.758,3.946-1.262,6.003-1.501c24.717-2.472,59.233,33.545,80.33,85.628
		C482.762,143.244,481.174,197.18,456.279,207.244z"/>
	<g>
		<circle style="fill:#2C2F38;" cx="197.984" cy="243.79" r="22.069"/>
		<circle style="fill:#2C2F38;" cx="312.743" cy="243.79" r="22.069"/>
	</g>
	<g>
		<path style="fill:#7F5B53;" d="M290.674,345.307c-2.341-0.001-4.587,0.929-6.243,2.585c-1.656,1.656-2.585,3.901-2.585,6.243
			c0,4.875-3.952,8.828-8.828,8.828s-8.828-3.952-8.828-8.828v-44.138c0-4.875-3.952-8.828-8.828-8.828s-8.828,3.952-8.828,8.828
			v44.138c0,4.875-3.952,8.828-8.828,8.828s-8.828-3.952-8.828-8.828s-3.952-8.828-8.828-8.828c-4.875,0-8.828,3.952-8.828,8.828
			c-0.046,10.466,6.103,19.968,15.668,24.215c9.566,4.247,20.738,2.434,28.47-4.62c7.732,7.054,18.904,8.867,28.47,4.62
			c9.566-4.247,15.714-13.749,15.668-24.215c0.001-2.341-0.929-4.587-2.585-6.243C295.261,346.237,293.015,345.307,290.674,345.307z
			"/>
		<circle style="fill:#7F5B53;" cx="378.95" cy="327.652" r="35.31"/>
	</g>
	<path style="fill:#D75E72;" d="M281.846,309.997c0,9.751-26.483,26.483-26.483,26.483s-26.483-16.732-26.483-26.483
		s11.857-17.655,26.483-17.655C269.99,292.342,281.846,300.246,281.846,309.997z"/>
	
		<ellipse transform="matrix(-0.6722 -0.7404 0.7404 -0.6722 274.5519 998.2495)" style="fill:#7F5B53;" cx="358.256" cy="438.348" rx="66.207" ry="83.862"/>
	<g>
		<path style="fill:#D75E72;" d="M323.954,511.001c-21.925-5.105-38.407-23.239-41.401-45.55
			c12.632-10.974,31.716-9.849,42.97,2.534C336.778,480.367,336.081,499.472,323.954,511.001z"/>
		<path style="fill:#D75E72;" d="M423.352,461.478c-11.384,1.081-22.177-5.264-26.767-15.738s-1.941-22.71,6.569-30.348
			c8.511-7.638,20.962-8.952,30.88-3.26C435.893,429.303,432.146,446.614,423.352,461.478z"/>
		<path style="fill:#D75E72;" d="M385.306,395.889c-8.446,7.706-20.886,9.116-30.842,3.495c-9.956-5.62-15.177-17-12.943-28.213
			c15.623-7.28,33.187-9.293,50.052-5.738C396.372,375.864,393.833,388.202,385.306,395.889z"/>
		<path style="fill:#D75E72;" d="M387.777,345.307c0.011,6.098-1.571,12.092-4.59,17.39c-1.406,0.176-2.821,0.265-4.237,0.265
			c-12.563,0.005-24.181-6.667-30.508-17.52c-6.327-10.853-6.407-24.252-0.212-35.18c1.406-0.176,2.821-0.264,4.237-0.265
			c9.366-0.003,18.348,3.717,24.971,10.339C384.06,326.959,387.78,335.942,387.777,345.307z"/>
	</g>
	<g>
		<circle style="fill:#7F5B53;" cx="131.715" cy="327.652" r="35.31"/>
		
			<ellipse transform="matrix(-0.7404 -0.6722 0.6722 -0.7404 -29.3087 865.3527)" style="fill:#7F5B53;" cx="152.469" cy="438.337" rx="83.862" ry="66.207"/>
	</g>
	<g>
		<path style="fill:#D75E72;" d="M186.711,511.001c21.925-5.105,38.407-23.239,41.401-45.55
			c-12.632-10.974-31.716-9.849-42.97,2.534C173.887,480.367,174.584,499.472,186.711,511.001z"/>
		<path style="fill:#D75E72;" d="M87.312,461.478c11.384,1.081,22.177-5.264,26.767-15.738c4.59-10.474,1.941-22.71-6.569-30.348
			s-20.962-8.952-30.88-3.26C74.771,429.303,78.518,446.614,87.312,461.478z"/>
		<path style="fill:#D75E72;" d="M125.36,395.889c8.446,7.706,20.886,9.116,30.842,3.495c9.956-5.62,15.177-17,12.943-28.213
			c-15.623-7.28-33.187-9.293-50.052-5.738C114.293,375.864,116.832,388.202,125.36,395.889z"/>
		<path style="fill:#D75E72;" d="M122.887,345.307c-0.011,6.098,1.571,12.092,4.59,17.39c1.406,0.176,2.821,0.265,4.237,0.265
			c12.563,0.005,24.181-6.667,30.508-17.52c6.327-10.853,6.407-24.252,0.212-35.18c-1.406-0.176-2.821-0.264-4.237-0.265
			c-9.366-0.003-18.348,3.717-24.971,10.339C126.604,326.959,122.885,335.942,122.887,345.307z"/>
	</g>
</g>
<g>
</g>
<g>
</g>
<g>
</g>
<g>
</g>
<g>
</g>
<g>
</g>
<g>
</g>
<g>
</g>
<g>
</g>
<g>
</g>
<g>
</g>
<g>
</g>
<g>
</g>
<g>
</g>
<g>
</g>
</svg>
