<?xml version="1.0" encoding="iso-8859-1"?>
<!-- Generator: Adobe Illustrator 19.0.0, SVG Export Plug-In . SVG Version: 6.00 Build 0)  -->
<svg version="1.1" id="Capa_1" xmlns="http://www.w3.org/2000/svg" xmlns:xlink="http://www.w3.org/1999/xlink" x="0px" y="0px"
	 viewBox="0 0 512 512" style="enable-background:new 0 0 512 512;" xml:space="preserve">
<g>
	<path style="fill:#F29C1F;" d="M462.148,315.89l16.409,61.313c1.279,4.778-1.558,9.688-6.336,10.966l-61.308,16.407
		c-3.093,0.828-5.508,3.243-6.336,6.336l-16.407,61.308c-1.279,4.778-6.188,7.614-10.966,6.336l-61.314-16.409
		c-3.09-0.827-6.386,0.057-8.648,2.319l-44.91,44.91C260.653,511.056,258.375,512,256,512s-4.653-0.944-6.333-2.623l-44.91-44.91
		c-2.262-2.262-5.558-3.145-8.648-2.319l-61.314,16.409c-4.778,1.279-9.688-1.558-10.966-6.336l-16.407-61.308
		c-0.828-3.093-3.243-5.508-6.336-6.336L39.779,388.17c-4.778-1.279-7.614-6.188-6.336-10.966l16.409-61.314
		c0.827-3.09-0.057-6.386-2.319-8.648l-44.91-44.91C0.944,260.653,0,258.375,0,256s0.944-4.653,2.623-6.333l44.91-44.91
		c2.262-2.262,3.145-5.558,2.319-8.648l-16.409-61.314c-1.279-4.778,1.558-9.688,6.336-10.966l61.308-16.407
		c3.093-0.828,5.508-3.243,6.336-6.336l16.407-61.308c1.279-4.778,6.188-7.614,10.966-6.336l61.314,16.409
		c3.09,0.827,6.386-0.057,8.648-2.319l44.91-44.91C251.347,0.944,253.625,0,256,0c2.375,0,4.653,0.944,6.333,2.623l44.91,44.91
		c2.262,2.262,5.558,3.145,8.648,2.319l61.313-16.409c4.778-1.279,9.688,1.558,10.966,6.336l16.407,61.308
		c0.828,3.093,3.243,5.508,6.336,6.336l61.308,16.407c4.778,1.279,7.614,6.188,6.336,10.966l-16.409,61.314
		c-0.827,3.09,0.057,6.386,2.319,8.648l44.91,44.91c1.679,1.679,2.623,3.957,2.623,6.333s-0.944,4.653-2.623,6.333l-44.91,44.91
		C462.205,309.504,461.322,312.8,462.148,315.89z"/>
	<circle style="fill:#F0C419;" cx="256" cy="256" r="167.724"/>
	<path style="fill:#F9EAB0;" d="M123.871,273.655c-4.64-0.005-8.485-3.599-8.802-8.228c-0.207-3.116-0.31-6.259-0.31-9.427
		c-0.145-44.469,20.813-86.371,56.483-112.927c3.897-2.933,9.434-2.151,12.366,1.746c2.933,3.897,2.151,9.434-1.746,12.366
		c-31.221,23.232-49.569,59.898-49.448,98.815c0,2.763,0.086,5.508,0.276,8.228c0.159,2.337-0.618,4.641-2.159,6.405
		c-1.541,1.764-3.72,2.843-6.057,3C124.276,273.646,124.069,273.655,123.871,273.655z"/>
</g>
<g>
</g>
<g>
</g>
<g>
</g>
<g>
</g>
<g>
</g>
<g>
</g>
<g>
</g>
<g>
</g>
<g>
</g>
<g>
</g>
<g>
</g>
<g>
</g>
<g>
</g>
<g>
</g>
<g>
</g>
</svg>
