<?xml version="1.0" encoding="iso-8859-1"?>
<!-- Generator: Adobe Illustrator 19.0.0, SVG Export Plug-In . SVG Version: 6.00 Build 0)  -->
<svg version="1.1" id="Capa_1" xmlns="http://www.w3.org/2000/svg" xmlns:xlink="http://www.w3.org/1999/xlink" x="0px" y="0px"
	 viewBox="0 0 512 512" style="enable-background:new 0 0 512 512;" xml:space="preserve">
<g>
	<path style="fill:#4C8056;" d="M317.539,50.346c-30.72-13.241-76.712-7.945-76.712-7.945s13.859,45.109,32.221,66.648
		c9.049,9.863,22.746,14.023,35.752,10.858L317.539,50.346z"/>
	<path style="fill:#71C285;" d="M445.595,156.269c-28.515,37.512-85.365,34.183-117.509,1.139s-34.684-90.586,1.107-120.805
		C388.401-13.387,512,2.822,512,2.822S483.437,106.487,445.595,156.269z"/>
	<path style="fill:#4C8056;" d="M263.733,257.894c-0.31,0-0.625-0.018-0.944-0.047c-4.847-0.52-8.358-4.867-7.845-9.716
		c11.453-107.634,125.168-157.392,130-159.457c4.483-1.918,9.671,0.162,11.588,4.644s-0.162,9.671-4.644,11.588
		c-1.091,0.466-109.043,47.866-119.384,145.095C272.025,254.486,268.243,257.888,263.733,257.894z"/>
	<path style="fill:#CB8252;" d="M105.931,308.652c-0.087-15.152,7.648-29.278,20.462-37.365c12.814-8.087,28.894-8.992,42.534-2.393
		c16.319-22.769,47.582-28.824,71.222-13.795c4.527-11.944,16.946-18.944,29.508-16.632c12.562,2.312,21.675,13.274,21.653,26.047
		c0,0.464-0.113,0.896-0.136,1.354c29.163-5.99,58.738,8.22,72.286,34.73c10.416-2.219,21.277,0.389,29.551,7.095
		c8.273,6.706,13.073,16.792,13.059,27.442c0,0.151-0.043,0.29-0.044,0.44c15.192,2.131,26.501,15.116,26.527,30.456l-0.001,0.002
		c-8.206,24.618-28.807,43.068-54.177,48.521l-102.777,22.092c-9.059,1.947-18.405,2.161-27.544,0.629l-66.614-11.167
		c-28.49-4.776-51.524-25.827-58.839-53.773L105.931,308.652z"/>
	<path style="fill:#F0785A;" d="M79.448,321.894V480.79c-0.082,17.03-13.867,30.815-30.897,30.897H30.897
		C13.841,511.668,0.019,497.846,0,480.79V321.894c0.019-17.056,13.841-30.878,30.897-30.897h17.655
		c12.384,0.016,23.565,7.413,28.425,18.803C78.616,313.621,79.457,317.736,79.448,321.894z"/>
	<path style="fill:#FDD7AD;" d="M500.348,393.132L334.919,493.855c-9.682,5.893-20.798,9.008-32.132,9.004H70.621l-0.265-0.265
		c5.833-5.754,9.109-13.611,9.092-21.804V321.894c0.008-4.158-0.833-8.273-2.472-12.094l2.472-1.148h24.717
		c18.286,0.025,36.024,6.249,50.317,17.655c14.293,11.406,32.031,17.63,50.317,17.655h46.168
		c15.522-0.023,29.909,8.126,37.87,21.451l0.794,1.324c7.526,12.579,5.524,28.667-4.855,39.018h20.745
		c3.813,0.002,7.601-0.624,11.211-1.854l163.399-54.466c9.89-3.247,20.75,0.16,27.012,8.475v0.088
		c4.103,5.449,5.705,12.381,4.409,19.078C510.259,383.772,506.187,389.607,500.348,393.132z"/>
	<path style="fill:#CBB292;" d="M150.078,432.238c-3.886,0.004-7.317-2.534-8.451-6.251c-1.134-3.717,0.295-7.738,3.52-9.905
		l6.444-4.328c14.507-9.66,31.545-14.818,48.974-14.828h57.728c4.875,0,8.828,3.952,8.828,8.828c0,4.875-3.952,8.828-8.828,8.828
		h-57.728c-13.943,0.007-27.572,4.134-39.177,11.862l-6.397,4.293C153.54,431.717,151.829,432.24,150.078,432.238z"/>
	<g>
		<path style="fill:#805333;" d="M194.655,308.652c-2.651,0.003-5.164-1.186-6.842-3.238c-1.679-2.052-2.346-4.75-1.818-7.348
			c2.967-14.371,15.606-24.691,30.281-24.724c6.691-0.019,13.204,2.153,18.543,6.185c3.876,2.935,4.649,8.452,1.729,12.338
			c-2.921,3.887-8.435,4.68-12.332,1.774c-2.287-1.724-5.076-2.652-7.94-2.642c-6.287,0.011-11.704,4.43-12.978,10.586
			C202.462,305.694,198.85,308.649,194.655,308.652z"/>
		<path style="fill:#805333;" d="M325.319,327.6c-4.39-0.006-8.108-3.236-8.728-7.582c-0.397-2.838-1.713-5.468-3.746-7.487
			c-4.453-4.435-11.405-5.142-16.66-1.694c-2.629,1.748-5.991,1.96-8.818,0.554c-2.827-1.406-4.688-4.214-4.88-7.365
			c-0.192-3.151,1.313-6.165,3.948-7.904c8.836-5.842,20.049-6.751,29.711-2.41c9.662,4.341,16.428,13.329,17.927,23.815
			c0.686,4.827-2.669,9.298-7.496,9.987C326.16,327.571,325.74,327.599,325.319,327.6z"/>
	</g>
</g>
<g>
</g>
<g>
</g>
<g>
</g>
<g>
</g>
<g>
</g>
<g>
</g>
<g>
</g>
<g>
</g>
<g>
</g>
<g>
</g>
<g>
</g>
<g>
</g>
<g>
</g>
<g>
</g>
<g>
</g>
</svg>
