<?xml version="1.0" encoding="iso-8859-1"?>
<!-- Generator: Adobe Illustrator 19.0.0, SVG Export Plug-In . SVG Version: 6.00 Build 0)  -->
<svg version="1.1" id="Capa_1" xmlns="http://www.w3.org/2000/svg" xmlns:xlink="http://www.w3.org/1999/xlink" x="0px" y="0px"
	 viewBox="0 0 512 512" style="enable-background:new 0 0 512 512;" xml:space="preserve">
<g>
	<path style="fill:#F09372;" d="M467.862,306.494C467.862,420.017,372.966,512,256,512S44.138,420.017,44.138,306.494
		c0-41.843,12.888-94.455,35.046-144.243c11.935-27.228,26.762-53.094,44.226-77.153C159.691,35.487,205.859,0,256,0
		s96.309,35.487,132.59,85.098c17.464,24.059,32.291,49.925,44.226,77.153C454.974,212.039,467.862,264.651,467.862,306.494z"/>
	<circle style="fill:#FF5364;" cx="256" cy="441.379" r="26.483"/>
	<circle style="fill:#65DDB9;" cx="176.552" cy="432.552" r="17.655"/>
	<circle style="fill:#CC66A1;" cx="335.448" cy="432.552" r="17.655"/>
	<path style="fill:#2FA8CC;" d="M432.817,162.251C375.339,178.63,315.756,186.423,256,185.379
		c-59.756,1.044-119.339-6.75-176.817-23.128c11.935-27.228,26.762-53.094,44.226-77.153c43.702,8.295,88.109,12.316,132.59,12.006
		c44.482,0.311,88.888-3.71,132.59-12.006C406.055,109.157,420.882,135.023,432.817,162.251z"/>
	<path style="fill:#F0C419;" d="M324.857,277.583c-5.199-14.548-19.102-24.155-34.549-23.874
		c-5.171-14.506-18.907-24.192-34.308-24.192s-29.136,9.686-34.308,24.192c-15.446-0.281-29.349,9.326-34.549,23.874
		c-4.774,14.47,0.684,30.348,13.344,38.826c-4.924,14.419,0.376,30.352,12.956,38.948c12.832,8.835,29.806,8.757,42.556-0.197
		c12.75,8.953,29.724,9.032,42.556,0.197c12.58-8.596,17.88-24.529,12.956-38.948C324.173,307.931,329.63,292.053,324.857,277.583z"
		/>
	<circle style="fill:#FF5364;" cx="256" cy="300.138" r="17.655"/>
	<g>
		<path style="fill:#F0C419;" d="M126.146,289.898c4.922,14.444-0.384,30.399-12.977,39.018
			c-12.837,8.839-29.823,8.733-42.549-0.265c-7.106,4.976-15.712,7.346-24.364,6.709c-1.42-9.556-2.129-19.205-2.119-28.866
			c0.931-35.002,7.335-69.643,18.979-102.665c2.465-0.535,4.981-0.802,7.503-0.794c15.45-0.139,29.267,9.593,34.339,24.188
			c15.443-0.247,29.326,9.375,34.516,23.923C144.206,265.59,138.762,281.419,126.146,289.898z"/>
		<path style="fill:#F0C419;" d="M467.862,306.494c0.01,9.661-0.698,19.31-2.119,28.866c-8.652,0.637-17.258-1.733-24.364-6.709
			c-12.725,8.998-29.712,9.104-42.549,0.265c-12.593-8.619-17.899-24.574-12.977-39.018c-12.615-8.479-18.06-24.308-13.33-38.753
			c5.189-14.547,19.073-24.17,34.516-23.923c5.073-14.594,18.889-24.326,34.339-24.188c2.523-0.007,5.038,0.259,7.503,0.794
			C460.527,236.851,466.931,271.492,467.862,306.494z"/>
	</g>
</g>
<g>
</g>
<g>
</g>
<g>
</g>
<g>
</g>
<g>
</g>
<g>
</g>
<g>
</g>
<g>
</g>
<g>
</g>
<g>
</g>
<g>
</g>
<g>
</g>
<g>
</g>
<g>
</g>
<g>
</g>
</svg>
